<svg width="24" height="33" viewBox="0 0 24 33" fill="none" xmlns="http://www.w3.org/2000/svg">
<path fill-rule="evenodd" clip-rule="evenodd" d="M11 0.916672C5.48 0.916672 1 5.21001 1 10.5C1 15.79 5.48 20.0833 11 20.0833C16.52 20.0833 21 15.79 21 10.5C21 5.21001 16.52 0.916672 11 0.916672ZM11 18.1667C6.58 18.1667 3 14.7358 3 10.5C3 6.26417 6.58 2.83334 11 2.83334C15.42 2.83334 19 6.26417 19 10.5C19 14.7358 15.42 18.1667 11 18.1667ZM6 10.5C6 7.85364 8.23858 5.70834 11 5.70834C13.7614 5.70834 16 7.85364 16 10.5C16 13.1464 13.7614 15.2917 11 15.2917C8.23858 15.2917 6 13.1464 6 10.5Z" fill="#27AE60"/>
</svg>
